<svg xmlns="http://www.w3.org/2000/svg" xmlns:xlink="http://www.w3.org/1999/xlink" width="185.083" height="49.049" viewBox="0 0 185.083 49.049">
  <defs>
    <clipPath id="clip-path">
      <rect id="Rectángulo_6" data-name="Rectángulo 6" width="185.083" height="49.049" fill="#fff"/>
    </clipPath>
  </defs>
  <g id="Grupo_12" data-name="Grupo 12" transform="translate(-27.459 -25.726)">
    <text id="COMISIÓN_NACIONAL_PARA_LA_MEJORA_CONTINUA_DE_LA_EDUCACIÓN" data-name="COMISIÓN NACIONAL PARA LA MEJORA
CONTINUA DE LA EDUCACIÓN" transform="translate(82 56)" fill="#fff" font-size="6" font-family="HelveticaNeue, Helvetica Neue"><tspan x="0" y="0">COMISIÓN NACIONAL PARA LA MEJORA</tspan><tspan x="0" y="7">CONTINUA DE LA EDUCACIÓN</tspan></text>
    <g id="Grupo_9" data-name="Grupo 9" transform="translate(-46.462 25.726)">
      <g id="Grupo_2" data-name="Grupo 2" transform="translate(73.921 0)" clip-path="url(#clip-path)">
        <path id="Trazado_367" data-name="Trazado 367" d="M68.894.917A32.4,32.4,0,0,1,78.1.01c4.54.076,8.452,1.843,12.153,4.26a24.655,24.655,0,0,1,3.783,2.985C95.049,8.6,96.076,9.93,97.054,11.3a10.992,10.992,0,0,1,.763,1.481c-.772.16-1.818-.923-2.311.386-.469,1.244-.755,2.559-1.121,3.842-2.854.726-5.689,1.538-8.567,2.157-4.2.9-8.44,1.669-12.662,2.493.037-.9-.172-1.584-1.185-1.873-.248-.071-.358-.632-.532-.968,4.732-1.392,9.425-2.943,14.211-4.113a4.419,4.419,0,0,0,3.816-4.54,23.8,23.8,0,0,1,.425-2.467L61.513,17.919c-3.024.934-5.95,2.25-9.457,2.479.184-.911.284-1.633.477-2.329.921-3.343,2.74-6.255,4.471-9.208a44.435,44.435,0,0,1,5.047-4.476A63.369,63.369,0,0,1,68.894.917" transform="translate(-52.056 0)" fill="#fff"/>
        <path id="Trazado_368" data-name="Trazado 368" d="M88.654,30.153q-1.193,4.389-2.386,8.779a24,24,0,0,1-.853,2.952,3.285,3.285,0,0,1-1.266,1.532,12.3,12.3,0,0,1-2.658.911,26.375,26.375,0,0,1-10.207.626c-3.595-.282-6.645-1.946-9.622-3.791a20.9,20.9,0,0,0,2.56-3.628c.74-1.7,2.151-2.459,3.45-3.533a38.243,38.243,0,0,0,4.166-4.656c.049-.057.015-.184.019-.278.6.073,1.206.182,1.811.21,4.6.206,9.2.391,13.794.6a6.671,6.671,0,0,1,1.191.273" transform="translate(-50.775 3.876)" fill="#fff"/>
        <path id="Trazado_369" data-name="Trazado 369" d="M91.739,15.535c.366-1.284.651-2.6,1.121-3.842.493-1.311,1.539-.228,2.311-.386,6.085,12.39,2.253,23.464-6.049,30.717,1.315-4.3,2.54-8.29,3.764-12.284.826-.95.316-1.895-.014-2.839.131-.133.265-.262.4-.393-.329.018-.656.039-.985.058q-.415.029-.83.054c-.284.015-.569.027-.853.041q-9.343.906-18.689,1.818.139-2.188.278-4.377c1.45-.138,2.9-.231,4.346-.427q5.7-.775,11.395-1.63c1.1-.167,2.36-.264,2.83-1.505.545-1.44.913-2.949,1.359-4.428.022-.027.068-.063.061-.08a.914.914,0,0,0-.088-.168l-.355-.328" transform="translate(-49.408 1.472)" fill="#fff"/>
        <path id="Trazado_370" data-name="Trazado 370" d="M73.208,19.443l-.621.369q-5.935.91-11.867,1.816l-1.453.194-7.332.657c-.6-1.888-.207-2.579,1.583-2.846,3.063-.457,6.125-.93,9.187-1.4,1.744-.295,3.493-.571,5.234-.89,1.19-.218,2.369-.5,3.552-.746.175.337.283.9.533.969,1.012.288,1.222.977,1.184,1.873" transform="translate(-52.107 2.214)" fill="#fff"/>
        <path id="Trazado_371" data-name="Trazado 371" d="M62.924,41.38,59.8,39.166c-1.777-2.226-3.686-4.362-5.284-6.709a32.89,32.89,0,0,1-2.313-5.03l4.478.355c5.358.562,10.682,1.553,16.106,1.293l.334.211c0,.094.029.222-.019.278a38.075,38.075,0,0,1-4.166,4.656c-1.3,1.073-2.709,1.834-3.449,3.534a20.946,20.946,0,0,1-2.561,3.627" transform="translate(-52.037 3.658)" fill="#fff"/>
        <path id="Trazado_372" data-name="Trazado 372" d="M73.442,22.548l1.417.018-.275,4.377-.864.142-5.085-.036-.311-.006-7.635-.229-.568-.037L58.7,26.544l-.85-.039-1.418.039c-.93-.018-1.862-.087-2.789-.042-1.2.059-1.876-.318-1.734-1.651.059-.553.02-1.115.026-1.674l3.643-.041,5.114.179c2.2-.079,4.4-.119,6.6-.25,2.052-.121,4.1-.34,6.15-.517" transform="translate(-52.078 3.007)" fill="#fff"/>
        <path id="Trazado_373" data-name="Trazado 373" d="M134.7,67.073a6.552,6.552,0,0,1-3.677-6.584c.027-.7-.009-1.408-.016-2.113V53.17H134.3c0,1.052,0,2.113,0,3.174-.007,1.586-.05,3.174-.012,4.76a3.252,3.252,0,0,0,4.083,3.367c1.4-.248,2.377-1.6,2.4-3.417.029-2.228.007-4.457.007-6.686V53.105c.97,0,1.87-.046,2.757.037.184.018.459.509.465.785.045,2.431.037,4.862.046,7.293-.3,2.115-.84,4.142-2.83,5.3a6.675,6.675,0,0,1-5.04.847c-.488-.118-.985-.2-1.478-.3" transform="translate(30.595 -42.732)" fill="#fff"/>
        <path id="Trazado_374" data-name="Trazado 374" d="M78.549,65.5c-.11.508-.119,1.395-.348,1.455a7.778,7.778,0,0,1-2.388.086c-.143-.008-.367-.393-.377-.613-.041-.9,0-1.8-.013-2.7-.051-2.8-.115-5.594-.175-8.39q-.1-1.106-.193-2.211l8.49.028a5.192,5.192,0,0,1,4.016,3.811,4.732,4.732,0,0,1-1.694,5.01c-.874.574-.959,1.065-.308,1.837a26.965,26.965,0,0,1,1.7,2.263c.545.805.4.968-.595,1.07a3.247,3.247,0,0,1-3.651-2.051,3.114,3.114,0,0,0-3.069-2.063c-.878.019-1.348.237-1.339,1.166,0,.434-.037.869-.058,1.3m2.477-5.079h.911a2.335,2.335,0,0,0,2.433-2.031,2.478,2.478,0,0,0-1.88-2.546,27.936,27.936,0,0,0-3-.286c-.537-.042-.8.206-.821.768-.016.5-.146,1-.157,1.5-.063,2.914-.137,2.573,2.516,2.594" transform="translate(41.075 -42.739)" fill="#fff"/>
        <path id="Trazado_375" data-name="Trazado 375" d="M95.737,66.917c.874.123,1.743.485,2.566-.3.184-.176.8.182,1.2.137,1.568-.177,3.127-.427,4.693-.628a8.466,8.466,0,0,1,1.083-.007c.548,2.046-.47,3.435-2.462,3.435q-2.23,0-4.459-.007c-1.335-.067-2.67-.151-4.007-.194a.96.96,0,0,1-1.085-1.021c-.051-.771.325-1.1,1.027-1.2.483-.065.963-.147,1.444-.222" transform="translate(37.665 -45.17)" fill="#fff"/>
        <path id="Trazado_376" data-name="Trazado 376" d="M98.748,60.319l5.5-1.139a2.6,2.6,0,0,1-1.751,3.439c-1.373.315-2.768.529-4.154.787l-.8.026-.419.134-.6.033-1.018.173a3.161,3.161,0,0,0-.6.041c-.612.158-1.282.518-1.589-.407a1.535,1.535,0,0,1,.922-2.13c1.122-.325,2.286-.5,3.433-.74.361-.076.722-.145,1.084-.218" transform="translate(37.679 -43.873)" fill="#fff"/>
        <path id="Trazado_377" data-name="Trazado 377" d="M103.628,52.591c-.016,2.419-.646,3.183-3.057,3.694q-2.253.478-4.508.948c-.5.037-1.008.047-1.505.119s-1.021.346-1.247-.378c-.291-.936-.032-1.857.66-2.064,1.155-.346,2.335-.6,3.507-.894q2.631-.649,5.266-1.285c.289-.069.588-.094.883-.14" transform="translate(37.678 -42.639)" fill="#fff"/>
        <path id="Trazado_378" data-name="Trazado 378" d="M124.8,59.363c.177,2.263-.3,4.356-2.14,5.794a21.729,21.729,0,0,1-3.6,1.888c-2.5.015-5.007.015-7.509.056-.7.011-1.01-.275-1.01-.941q0-6.393.019-12.785c0-.059.055-.117.215-.43,3,.134,6.146.077,9.231.479a6.2,6.2,0,0,1,4.8,5.938m-11.01.7c0,1.151-.031,2.3.02,3.451.014.306.267.857.43.865,1.743.08,3.546.324,5.152-.582a4.234,4.234,0,0,0,2.037-4.871,4.375,4.375,0,0,0-4.3-3.23,9.912,9.912,0,0,1-1.707-.15c-1.239-.182-1.614.115-1.627,1.37-.011,1.049,0,2.1,0,3.147" transform="translate(34.429 -42.705)" fill="#fff"/>
        <path id="Trazado_379" data-name="Trazado 379" d="M0,62.63V53.239c2.845-.407,3.168-.093,4.148,1.73,1.209,2.25,2.673,4.364,4.142,6.721.683-1.135,1.306-2.148,1.907-3.175.818-1.4,1.649-2.792,2.418-4.219a1.93,1.93,0,0,1,2.18-1.227,10.666,10.666,0,0,0,1.512.011V64.661c-.009.371-.023.743-.025,1.114-.007,1.327-.007,1.343-1.376,1.339-2.226-.006-1.848.262-1.871-1.868-.021-1.954,0-3.907-.184-5.937-.779,1.226-1.561,2.449-2.334,3.68-.413.657-.769,1.352-1.221,1.981-.8,1.117-1.519,1.139-2.268.013-.878-1.319-1.652-2.706-2.477-4.06a5.7,5.7,0,0,0-1.273-1.571q0,3.167,0,6.333c0,1.44,0,1.44-1.482,1.427C.026,67.1.028,67.1.025,65.366c0-.912-.016-1.825-.025-2.736" transform="translate(55.133 -42.722)" fill="#fff"/>
        <path id="Trazado_380" data-name="Trazado 380" d="M53.254,59.288a7.891,7.891,0,0,1,3.274-5.48l4.06-1.263a29.817,29.817,0,0,1,3.907.814c1.727.6,2.77,2.069,3.792,3.5.145.895.328,1.785.43,2.684.54,4.725-3.5,7.715-7.275,7.851a7.507,7.507,0,0,1-8.166-7.7c0-.135-.014-.27-.021-.4m12.008.748a4.314,4.314,0,0,0-4.2-4.6,4.444,4.444,0,0,0-4.506,4.513,4.67,4.67,0,0,0,4.473,4.478c2.033-.049,4.58-1.761,4.228-4.389" transform="translate(45.159 -42.63)" fill="#fff"/>
        <path id="Trazado_381" data-name="Trazado 381" d="M24,56.156V53.178H34.526c.029.443.06.9.09,1.352-.029.3-.059.6-.1,1.027-2.009,0-4,.048-5.98-.02-.965-.034-1.4.24-1.271,1.24.051.4-.108.875.059,1.2a1.433,1.433,0,0,0,.952.744c1.774.074,3.553.035,5.413.035v2.48H29.813c-2.644,0-2.645,0-2.536,2.636.007.163.041.324.08.63,1.095,0,2.165-.024,3.234.006,1.279.037,2.557.137,3.836.174.569.017,1.031.08.975.812-.054.7.015,1.513-.976,1.61-.67.066-1.351.024-2.027.025-2.435,0-4.87-.026-7.3.028-.825.019-1.109-.192-1.1-1.06.044-3.313.01-6.626,0-9.939" transform="translate(50.639 -42.749)" fill="#fff"/>
        <path id="Trazado_382" data-name="Trazado 382" d="M39.883,55.5c-.232-2.393-.232-2.4,2.152-2.41,1.719-.008,3.439.024,5.157-.011.709-.015.96.261.951.947-.019,1.382.011,2.763.022,4.145-.011,1.556-.067,3.112-.025,4.666.1,3.8-3.712,5.145-6.081,4.564a9.568,9.568,0,0,1-2.613-1.053,1.5,1.5,0,0,1-.581-1.318A5.088,5.088,0,0,1,40.2,63.482c.066-.062.439.221.679.323A10.147,10.147,0,0,0,43,64.648a1.4,1.4,0,0,0,1.67-1.449c.047-2.332.013-4.666.033-7,0-.559-.276-.674-.759-.671-1.352,0-2.7-.018-4.057-.03" transform="translate(47.859 -42.729)" fill="#fff"/>
      </g>
    </g>
  </g>
</svg>
