<svg xmlns="http://www.w3.org/2000/svg" xmlns:xlink="http://www.w3.org/1999/xlink" width="343.24" height="218.44" viewBox="0 0 343.24 218.44">
  <defs>
    <clipPath id="clip-path">
      <rect id="Rectángulo_6" data-name="Rectángulo 6" width="343.241" height="165.44" fill="#044138"/>
    </clipPath>
  </defs>
  <g id="Grupo_11" data-name="Grupo 11" transform="translate(-511.88 -385.5)">
    <g id="Grupo_3" data-name="Grupo 3" transform="translate(511.88 385.5)">
      <g id="Grupo_2" data-name="Grupo 2" transform="translate(0 0)" clip-path="url(#clip-path)">
        <path id="Trazado_367" data-name="Trazado 367" d="M86.734,1.888C92.952.184,99.289-.089,105.7.021c9.35.156,17.408,3.8,25.029,8.774a50.779,50.779,0,0,1,7.791,6.148c2.077,2.771,4.192,5.509,6.206,8.321a22.64,22.64,0,0,1,1.571,3.051c-1.59.329-3.744-1.9-4.759.8-.966,2.563-1.555,5.27-2.308,7.913-5.877,1.5-11.717,3.167-17.644,4.442-8.66,1.86-17.382,3.438-26.077,5.135.077-1.844-.355-3.263-2.441-3.858-.511-.147-.738-1.3-1.095-1.993,9.745-2.866,19.41-6.062,29.267-8.47,5.366-1.312,7.521-4.271,7.859-9.35a49.021,49.021,0,0,1,.875-5.081L71.532,36.9c-6.227,1.923-12.254,4.633-19.476,5.1.378-1.877.586-3.363.983-4.8,1.9-6.886,5.644-12.882,9.208-18.965,3.438-3.114,6.566-6.7,10.394-9.217,4.372-2.876,9.369-4.8,14.093-7.142" transform="translate(69.449 0.001)" fill="#044138"/>
        <path id="Trazado_368" data-name="Trazado 368" d="M117.251,31.3q-2.458,9.04-4.913,18.08a49.437,49.437,0,0,1-1.758,6.08,6.766,6.766,0,0,1-2.607,3.156,25.333,25.333,0,0,1-5.473,1.877c-6.909,1.968-13.942,2.063-21.021,1.288-7.4-.581-13.685-4.008-19.817-7.808,1.8-2.472,4.082-4.734,5.273-7.471,1.524-3.5,4.43-5.065,7.105-7.275,3.27-2.7,5.765-6.342,8.58-9.589.1-.117.03-.378.04-.572,1.244.149,2.484.376,3.73.432,9.47.425,18.939.805,28.408,1.239a13.739,13.739,0,0,1,2.453.563" transform="translate(82.264 38.781)" fill="#044138"/>
        <path id="Trazado_369" data-name="Trazado 369" d="M112.744,20.3c.754-2.645,1.34-5.35,2.308-7.913,1.015-2.7,3.17-.469,4.759-.8,12.532,25.517,4.64,48.323-12.457,63.261,2.708-8.846,5.231-17.074,7.752-25.3,1.7-1.956.651-3.9-.028-5.847.271-.273.546-.539.819-.81-.677.037-1.351.079-2.028.119q-.854.06-1.709.112c-.586.03-1.172.056-1.758.084Q91.16,45.08,71.913,46.958q.287-4.506.572-9.014c2.985-.285,5.982-.476,8.951-.88q11.746-1.6,23.467-3.356c2.259-.343,4.86-.544,5.828-3.1,1.123-2.967,1.881-6.073,2.8-9.119.044-.056.14-.131.126-.166a1.882,1.882,0,0,0-.182-.345l-.731-.675" transform="translate(95.94 14.724)" fill="#044138"/>
        <path id="Trazado_370" data-name="Trazado 370" d="M96.024,22.455c-.427.254-.854.507-1.279.761Q82.523,25.089,70.3,26.955l-2.992.4q-7.549.679-15.1,1.354c-1.239-3.889-.427-5.312,3.261-5.861,6.309-.941,12.614-1.916,18.92-2.878,3.592-.607,7.194-1.176,10.779-1.832,2.451-.448,4.878-1.02,7.315-1.536.359.693.584,1.849,1.1,2,2.084.593,2.516,2.012,2.439,3.858" transform="translate(68.937 22.149)" fill="#044138"/>
        <path id="Trazado_371" data-name="Trazado 371" d="M74.284,56.162,67.847,51.6c-3.66-4.584-7.591-8.984-10.882-13.818-2.033-2.988-3.1-6.636-4.764-10.359,3.578.282,6.4.507,9.222.731,11.036,1.158,22,3.2,33.17,2.663l.689.434c-.009.194.061.457-.04.572-2.815,3.249-5.31,6.888-8.58,9.589-2.673,2.21-5.579,3.777-7.1,7.278-1.193,2.736-3.476,5-5.275,7.469" transform="translate(69.642 36.592)" fill="#044138"/>
        <path id="Trazado_372" data-name="Trazado 372" d="M96.272,22.548l2.918.037q-.284,4.51-.567,9.014-.889.147-1.779.292-5.238-.035-10.473-.075l-.64-.012-15.725-.471-1.169-.077q-1.456-.242-2.918-.478-.875-.039-1.751-.079-1.46.042-2.92.079c-1.916-.037-3.835-.18-5.744-.086-2.472.121-3.863-.656-3.571-3.4.121-1.139.042-2.3.054-3.447l7.5-.084q5.266.186,10.532.369c4.531-.163,9.063-.245,13.587-.516,4.227-.25,8.442-.7,12.665-1.064" transform="translate(69.233 30.082)" fill="#044138"/>
        <path id="Trazado_373" data-name="Trazado 373" d="M141.614,93.246c-7.651-4-10.884-10.445-10.56-18.909.077-2.019-.026-4.045-.047-6.069V53.316h9.453c0,3.02,0,6.069,0,9.117-.021,4.556-.145,9.117-.035,13.671.168,6.93,5.014,10.861,11.727,9.67,4.015-.712,6.827-4.589,6.9-9.815.084-6.4.021-12.8.021-19.2V53.129c2.787,0,5.371-.133,7.92.105.53.051,1.319,1.461,1.335,2.255.128,6.981.107,13.965.133,20.946-.85,6.073-2.411,11.9-8.127,15.228A19.171,19.171,0,0,1,145.86,94.1c-1.4-.338-2.829-.57-4.246-.85" transform="translate(174.779 70.832)" fill="#044138"/>
        <path id="Trazado_374" data-name="Trazado 374" d="M85.089,88.662c-.315,1.459-.343,4.005-1,4.178a22.339,22.339,0,0,1-6.858.247c-.411-.023-1.055-1.13-1.083-1.76-.117-2.582.012-5.17-.037-7.754-.147-8.034-.331-16.066-.5-24.1q-.28-3.176-.556-6.349,12.191.039,24.384.079c5.749,1.639,9.911,4.778,11.535,10.945,1.335,5.065-.392,11.458-4.867,14.39-2.512,1.648-2.754,3.058-.885,5.275a77.447,77.447,0,0,1,4.888,6.5c1.564,2.313,1.141,2.78-1.709,3.072-4.953.507-8.363-1.263-10.487-5.891-1.669-3.634-4.337-6.017-8.814-5.926-2.521.054-3.872.679-3.847,3.349.014,1.246-.107,2.5-.166,3.744M92.2,74.073c.873,0,1.744,0,2.617,0a6.707,6.707,0,0,0,6.988-5.833,7.116,7.116,0,0,0-5.4-7.313,80.237,80.237,0,0,0-8.625-.822c-1.543-.121-2.306.591-2.357,2.206-.047,1.44-.42,2.871-.45,4.311-.18,8.368-.392,7.39,7.226,7.45" transform="translate(100.132 70.878)" fill="#044138"/>
        <path id="Trazado_375" data-name="Trazado 375" d="M100.373,68.435c2.512.352,5.007,1.393,7.369-.852.53-.506,2.3.523,3.445.392,4.5-.509,8.982-1.228,13.477-1.8a24.317,24.317,0,0,1,3.111-.021c1.573,5.875-1.349,9.866-7.07,9.866q-6.4,0-12.807-.021c-3.835-.191-7.668-.434-11.507-.558-1.989-.063-2.978-.882-3.116-2.932-.147-2.215.934-3.163,2.95-3.433,1.386-.187,2.766-.422,4.148-.637" transform="translate(124.421 88.194)" fill="#044138"/>
        <path id="Trazado_376" data-name="Trazado 376" d="M109.155,62.45l15.788-3.27c1.442,4.295-.8,8.909-5.03,9.878-3.942.9-7.95,1.52-11.93,2.259q-1.152.038-2.3.075l-1.2.385-1.725.1-2.922.5a9.076,9.076,0,0,0-1.734.119c-1.758.453-3.683,1.487-4.563-1.169-.931-2.8.054-5.364,2.649-6.118,3.221-.934,6.566-1.44,9.859-2.126,1.036-.217,2.075-.418,3.114-.626" transform="translate(124.324 78.954)" fill="#044138"/>
        <path id="Trazado_377" data-name="Trazado 377" d="M123.161,52.591c-.047,6.949-1.856,9.14-8.779,10.609q-6.47,1.372-12.947,2.722c-1.442.107-2.894.135-4.323.343-1.405.208-2.932.994-3.581-1.085-.836-2.689-.091-5.333,1.9-5.929,3.317-.994,6.706-1.737,10.072-2.568q7.556-1.863,15.125-3.69c.829-.2,1.69-.271,2.537-.4" transform="translate(124.332 70.163)" fill="#044138"/>
        <path id="Trazado_378" data-name="Trazado 378" d="M151.5,71.377c.509,6.5-.861,12.511-6.146,16.64-3.02,2.357-6.869,3.651-10.345,5.422-7.189.044-14.38.042-21.567.161-2,.033-2.9-.791-2.9-2.7q.014-18.36.054-36.718c0-.168.159-.336.616-1.235,8.618.385,17.651.222,26.513,1.377,6.293.819,13.776,8.1,13.776,17.055M119.878,73.4c0,3.305-.089,6.613.058,9.911.04.88.766,2.46,1.235,2.483,5.007.229,10.184.931,14.8-1.671,4.986-2.815,7.53-8.776,5.852-13.991-1.414-4.4-5.366-9.486-12.352-9.276a28.468,28.468,0,0,1-4.9-.429c-3.559-.523-4.636.331-4.673,3.935-.033,3.013-.007,6.024-.012,9.038" transform="translate(147.471 70.635)" fill="#044138"/>
        <path id="Trazado_379" data-name="Trazado 379" d="M0,80.592V53.622c8.172-1.169,9.1-.268,11.913,4.969,3.473,6.463,7.677,12.534,11.895,19.3,1.961-3.258,3.751-6.169,5.478-9.119,2.35-4.017,4.736-8.02,6.944-12.116,1.391-2.582,3.17-4.029,6.26-3.525a30.632,30.632,0,0,0,4.341.033V86.428c-.026,1.067-.065,2.133-.072,3.2-.019,3.812-.019,3.856-3.952,3.847-6.393-.016-5.308.752-5.373-5.366-.061-5.611-.014-11.222-.528-17.051-2.236,3.522-4.484,7.035-6.7,10.569C29.018,83.512,28,85.51,26.7,87.315c-2.306,3.207-4.362,3.27-6.515.037-2.521-3.788-4.745-7.773-7.114-11.661a16.376,16.376,0,0,0-3.655-4.512q0,9.1,0,18.19c0,4.136,0,4.136-4.255,4.1C.075,93.421.082,93.421.072,88.451.065,85.832.026,83.211,0,80.592" transform="translate(0 70.755)" fill="#044138"/>
        <path id="Trazado_380" data-name="Trazado 380" d="M53.254,71.911a22.664,22.664,0,0,1,9.4-15.739l11.661-3.627c3.751.749,7.637,1.1,11.22,2.339,4.96,1.713,7.957,5.943,10.891,10.06.418,2.57.941,5.126,1.235,7.707,1.55,13.571-10.046,22.158-20.895,22.55C63.13,95.7,53.277,86.236,53.315,73.074c0-.387-.04-.775-.061-1.162m34.486,2.15c0-7.539-5.154-13.195-12.049-13.216C68,60.824,63.151,66.51,62.752,73.806c-.287,5.242,5.238,13.045,12.847,12.861,5.838-.14,13.153-5.058,12.142-12.607" transform="translate(71.047 70.102)" fill="#044138"/>
        <path id="Trazado_381" data-name="Trazado 381" d="M24.01,61.73V53.178H54.235c.084,1.272.173,2.577.259,3.884-.084.857-.168,1.711-.287,2.95-5.77,0-11.477.138-17.174-.058-2.771-.1-4.015.689-3.651,3.562.147,1.148-.31,2.514.168,3.44a4.116,4.116,0,0,0,2.736,2.138c5.1.212,10.2.1,15.548.1v7.124c-3.655,0-7.394,0-11.134,0-7.593,0-7.6,0-7.285,7.572.019.467.117.931.231,1.809,3.144,0,6.218-.07,9.287.016,3.674.105,7.343.392,11.017.5,1.634.049,2.962.229,2.8,2.332-.154,2.021.044,4.346-2.8,4.624-1.923.189-3.879.068-5.821.072-6.993.012-13.988-.075-20.977.079-2.369.054-3.184-.551-3.151-3.044.126-9.514.028-19.03.012-28.546" transform="translate(32.015 70.946)" fill="#044138"/>
        <path id="Trazado_382" data-name="Trazado 382" d="M41.842,60.029c-.665-6.874-.665-6.89,6.181-6.921,4.937-.023,9.876.07,14.81-.03,2.038-.042,2.757.749,2.731,2.719-.054,3.968.033,7.936.063,11.9-.033,4.467-.194,8.937-.072,13.4.3,10.914-10.662,14.777-17.464,13.108a27.479,27.479,0,0,1-7.5-3.025c-1.018-.612-2.052-2.859-1.669-3.786.71-1.725,2.392-3.086,3.823-4.437.189-.177,1.26.635,1.949.927,2.019.857,3.984,2.061,6.094,2.423a4.005,4.005,0,0,0,4.8-4.162c.135-6.7.037-13.4.093-20.106.012-1.606-.794-1.935-2.18-1.928-3.884.014-7.768-.051-11.652-.086" transform="translate(51.812 70.811)" fill="#044138"/>
      </g>
    </g>
    <text id="COMISIÓN_NACIONAL_PARA_LA_MEJORA_CONTINUA_DE_LA_EDUCACIÓN" data-name="COMISIÓN NACIONAL PARA LA MEJORA
CONTINUA DE LA EDUCACIÓN" transform="translate(684 584.94)" fill="#235b4e" font-size="14" font-family="HelveticaNeue, Helvetica Neue"><tspan x="-133.021" y="0">COMISIÓN NACIONAL PARA LA MEJORA</tspan><tspan x="-100.464" y="16">CONTINUA DE LA EDUCACIÓN</tspan></text>
  </g>
</svg>
