<?xml version="1.0" encoding="UTF-8"?>
<svg id="Capa_2" data-name="Capa 2" xmlns="http://www.w3.org/2000/svg" xmlns:xlink="http://www.w3.org/1999/xlink" viewBox="0 0 196.6 196.6">
  <defs>
    <style>
      .cls-1 {
        clip-path: url(#clippath);
      }

      .cls-2 {
        fill: none;
      }

      .cls-2, .cls-3 {
        stroke-width: 0px;
      }

      .cls-3 {
        fill: #211915;
      }
    </style>
    <clipPath id="clippath">
      <circle class="cls-2" cx="98.3" cy="98.3" r="98.3"/>
    </clipPath>
  </defs>
  <g id="Capa_1-2" data-name="Capa 1">
    <g class="cls-1">
      <g>
        <path class="cls-3" d="m167.81,28.79c-38.39-38.39-100.63-38.39-139.02,0C13.43,44.15,4.23,63.33,1.17,83.27c34.43-9.26,89.21-26.25,149.7-53.62,1.15-.52,2.41.48,2.15,1.72l-4.95,23.52S88.04,79.56.42,89.29c-.32,3.49-.44,6.98-.39,10.48,38.09-3.9,101.69-12.58,168.8-31.03,2.03-.56,3.87,1.35,3.22,3.35l-6.52,20.24S91.23,108.92.28,105.28c.3,4.19.85,8.36,1.68,12.49,44.07,3.01,117.64,5.31,173.43-6.67,2.15-.46,3.99,1.59,3.33,3.69l-19.06,60.31c2.82-2.26,5.55-4.68,8.17-7.29,38.39-38.39,38.39-100.63,0-139.02Z"/>
        <path class="cls-3" d="m153.37,135.4s-86.33-.26-149.9-11.28c4.34,16,12.76,31.12,25.33,43.69,29.62,29.62,73.43,36.36,109.53,20.28l15.05-52.68Z"/>
      </g>
    </g>
  </g>
</svg>