<?xml version="1.0" encoding="UTF-8"?>
<svg id="Capa_1" data-name="Capa 1" xmlns="http://www.w3.org/2000/svg" xmlns:xlink="http://www.w3.org/1999/xlink" viewBox="0 0 930.33 257.73">
  <defs>
    <style>
      .cls-1 {
        clip-path: url(#clippath);
      }

      .cls-2 {
        fill: none;
      }

      .cls-2, .cls-3, .cls-4 {
        stroke-width: 0px;
      }

      .cls-3 {
        fill: #bb945c;
      }

      .cls-4 {
        fill: #fff;
      }
    </style>
    <clipPath id="clippath">
      <circle class="cls-2" cx="134.53" cy="98.3" r="98.3"/>
    </clipPath>
  </defs>
  <g>
    <circle class="cls-3" cx="134.53" cy="98.3" r="98.3"/>
    <g class="cls-1">
      <g>
        <path class="cls-4" d="m0,92.3s85.51-16.67,187.09-62.65c1.15-.52,2.41.48,2.15,1.72l-4.95,23.52S107.1,86.63,0,92.3Z"/>
        <path class="cls-4" d="m0,102.72s98.09-4.57,205.06-33.99c2.03-.56,3.87,1.35,3.22,3.35l-6.52,20.24S106.7,113.57,0,102.72Z"/>
        <path class="cls-4" d="m0,114.41s126.5,14.96,211.61-3.31c2.15-.46,3.99,1.59,3.33,3.69l-45.18,142.94h-15.09l34.94-122.32s-131.77-.4-189.6-20.99Z"/>
      </g>
    </g>
  </g>
  <g>
    <g>
      <path class="cls-4" d="m338.25,102.01l-.11-47.77-23.43,39.35h-8.3l-23.32-38.33v46.74h-17.29V22.4h15.24l29.8,49.47,29.34-49.47h15.13l.23,79.61h-17.29Z"/>
      <path class="cls-4" d="m435.6,87.23v14.78h-61.64V22.4h60.16v14.78h-41.85v17.29h36.96v14.33h-36.96v18.43h43.33Z"/>
      <path class="cls-4" d="m449.65,100.36c-4.51-2.01-8.21-4.87-11.09-8.59l10.24-12.28c4.32,5.84,9.25,8.76,14.78,8.76,7.51,0,11.26-4.4,11.26-13.19v-37.87h-27.98v-14.78h46.29v51.63c0,9.78-2.43,17.12-7.28,22.01-4.85,4.89-11.98,7.34-21.38,7.34-5.38,0-10.33-1.01-14.84-3.01Z"/>
      <path class="cls-4" d="m527.09,98.03c-6.64-3.56-11.83-8.47-15.58-14.73-3.75-6.26-5.63-13.29-5.63-21.1s1.88-14.84,5.63-21.1c3.75-6.26,8.95-11.16,15.58-14.73,6.63-3.56,14.08-5.35,22.35-5.35s15.7,1.78,22.29,5.35c6.6,3.56,11.79,8.47,15.58,14.73,3.79,6.25,5.69,13.29,5.69,21.1s-1.9,14.84-5.69,21.1c-3.79,6.25-8.98,11.16-15.58,14.73-6.6,3.57-14.03,5.35-22.29,5.35s-15.71-1.78-22.35-5.35Zm35.09-13.59c3.79-2.16,6.77-5.17,8.93-9.04,2.16-3.87,3.24-8.26,3.24-13.19s-1.08-9.33-3.24-13.19c-2.16-3.87-5.14-6.88-8.93-9.04-3.79-2.16-8.04-3.24-12.74-3.24s-8.95,1.08-12.74,3.24c-3.79,2.16-6.77,5.17-8.93,9.04-2.16,3.87-3.24,8.26-3.24,13.19s1.08,9.32,3.24,13.19c2.16,3.87,5.14,6.88,8.93,9.04,3.79,2.16,8.04,3.24,12.74,3.24s8.95-1.08,12.74-3.24Z"/>
      <path class="cls-4" d="m657.15,102.01l-15.35-22.18h-16.95v22.18h-18.42V22.4h34.46c7.05,0,13.17,1.18,18.37,3.53,5.19,2.35,9.19,5.69,12,10.01,2.8,4.32,4.21,9.44,4.21,15.35s-1.42,11.01-4.26,15.3c-2.84,4.28-6.88,7.56-12.11,9.84l17.85,25.59h-19.79Zm-4.66-61.02c-2.88-2.39-7.09-3.58-12.62-3.58h-15.01v27.75h15.01c5.53,0,9.74-1.21,12.62-3.64,2.88-2.42,4.32-5.84,4.32-10.24s-1.44-7.9-4.32-10.29Z"/>
      <path class="cls-4" d="m765.42,22.4h36.17c8.64,0,16.28,1.65,22.92,4.95,6.63,3.3,11.79,7.94,15.47,13.93,3.68,5.99,5.52,12.97,5.52,20.93s-1.84,14.94-5.52,20.93c-3.68,5.99-8.83,10.64-15.47,13.93-6.64,3.3-14.27,4.95-22.92,4.95h-36.17V22.4Zm35.26,64.49c7.96,0,14.31-2.22,19.05-6.65,4.74-4.44,7.11-10.44,7.11-18.03s-2.37-13.59-7.11-18.03c-4.74-4.44-11.09-6.65-19.05-6.65h-16.83v49.36h16.83Z"/>
      <path class="cls-4" d="m867.72,93.94c-6.33-6.29-9.5-15.28-9.5-26.95V22.4h18.43v43.9c0,14.26,5.91,21.38,17.74,21.38,5.76,0,10.16-1.72,13.19-5.17,3.03-3.45,4.55-8.85,4.55-16.21V22.4h18.2v44.58c0,11.68-3.17,20.66-9.5,26.95-6.33,6.29-15.18,9.44-26.56,9.44s-20.23-3.15-26.56-9.44Z"/>
    </g>
    <g>
      <path class="cls-4" d="m688.24,76.89c34.31-2.17,56.8-7.65,56.8-7.65l5.52-15.34c.59-1.65-.9-3.34-2.59-2.87-21.14,5.82-40.84,8.79-59.72,11.8v14.06Z"/>
      <path class="cls-4" d="m688.24,100.55c26.54,1.39,46.42,1.45,46.42,1.45h15.66s5.43-17.16,5.43-17.16c.55-1.75-.98-3.45-2.77-3.07-19.82,4.26-42.58,6.35-64.73,7.15v11.62Z"/>
      <path class="cls-4" d="m688.24,48.35c32.84-3.58,52.91-10.29,52.91-10.29l4.5-14.17c.54-1.66-.99-3.25-2.68-2.78-19.64,5.4-36.6,9.33-54.72,12.9v14.34Z"/>
    </g>
  </g>
  <g>
    <path class="cls-3" d="m268.65,151.05c-1.37-.74-2.44-1.75-3.23-3.06-.78-1.3-1.17-2.78-1.17-4.42s.39-3.12,1.17-4.42c.78-1.3,1.86-2.32,3.23-3.06,1.37-.74,2.9-1.1,4.61-1.1,1.44,0,2.74.25,3.9.76,1.16.51,2.14,1.23,2.93,2.18l-2.47,2.28c-1.12-1.3-2.51-1.94-4.17-1.94-1.03,0-1.94.22-2.75.68-.81.45-1.43,1.08-1.89,1.88-.45.81-.68,1.72-.68,2.75s.23,1.94.68,2.75c.45.81,1.08,1.43,1.89,1.88.81.45,1.72.68,2.75.68,1.66,0,3.05-.66,4.17-1.97l2.47,2.28c-.79.96-1.77,1.7-2.94,2.2-1.17.51-2.47.76-3.91.76-1.69,0-3.22-.37-4.59-1.1Z"/>
    <path class="cls-3" d="m288.32,151.04c-1.38-.74-2.47-1.77-3.25-3.07-.78-1.3-1.17-2.77-1.17-4.4s.39-3.09,1.17-4.4c.78-1.3,1.87-2.33,3.25-3.07,1.38-.74,2.94-1.11,4.66-1.11s3.27.37,4.65,1.11c1.38.74,2.46,1.77,3.25,3.07.79,1.3,1.19,2.77,1.19,4.4s-.4,3.09-1.19,4.4c-.79,1.3-1.87,2.33-3.25,3.07-1.37.74-2.92,1.11-4.65,1.11s-3.28-.37-4.66-1.11Zm7.32-2.83c.79-.45,1.41-1.08,1.86-1.88.45-.81.68-1.72.68-2.75s-.23-1.94-.68-2.75c-.45-.81-1.07-1.43-1.86-1.88-.79-.45-1.68-.68-2.66-.68s-1.87.22-2.66.68c-.79.45-1.41,1.08-1.86,1.88-.45.81-.68,1.72-.68,2.75s.23,1.94.68,2.75c.45.81,1.07,1.43,1.86,1.88.79.45,1.68.68,2.66.68s1.87-.22,2.66-.68Z"/>
    <path class="cls-3" d="m322.77,151.87l-.02-9.96-4.89,8.21h-1.73l-4.86-7.99v9.75h-3.6v-16.6h3.18l6.21,10.32,6.12-10.32h3.15l.05,16.6h-3.6Z"/>
    <path class="cls-3" d="m333,135.27h3.84v16.6h-3.84v-16.6Z"/>
    <path class="cls-3" d="m345.3,151.62c-1.23-.36-2.21-.82-2.95-1.39l1.3-2.89c.71.52,1.56.94,2.54,1.26.98.32,1.96.47,2.94.47,1.09,0,1.9-.16,2.42-.49.52-.32.78-.75.78-1.29,0-.39-.15-.72-.46-.98-.31-.26-.7-.47-1.19-.63-.48-.16-1.13-.33-1.96-.52-1.27-.3-2.3-.6-3.11-.9-.81-.3-1.5-.78-2.08-1.45-.58-.66-.87-1.55-.87-2.66,0-.96.26-1.84.78-2.62.52-.78,1.31-1.4,2.36-1.86,1.05-.46,2.34-.69,3.85-.69,1.06,0,2.09.13,3.11.38,1.01.25,1.9.62,2.66,1.09l-1.19,2.92c-1.53-.87-3.07-1.3-4.6-1.3-1.08,0-1.87.17-2.38.52-.51.35-.77.81-.77,1.38s.3.99.89,1.27c.59.28,1.5.55,2.72.82,1.26.3,2.3.6,3.11.9.81.3,1.5.77,2.07,1.42.58.65.87,1.53.87,2.63,0,.95-.27,1.81-.79,2.6-.53.78-1.32,1.4-2.38,1.86-1.06.46-2.35.69-3.87.69-1.31,0-2.58-.18-3.81-.53Z"/>
    <path class="cls-3" d="m361.65,135.27h3.84v16.6h-3.84v-16.6Z"/>
    <path class="cls-3" d="m375.54,151.04c-1.38-.74-2.47-1.77-3.25-3.07-.78-1.3-1.17-2.77-1.17-4.4s.39-3.09,1.17-4.4c.78-1.3,1.87-2.33,3.25-3.07s2.94-1.11,4.66-1.11,3.27.37,4.65,1.11c1.38.74,2.46,1.77,3.25,3.07.79,1.3,1.19,2.77,1.19,4.4s-.4,3.09-1.19,4.4c-.79,1.3-1.87,2.33-3.25,3.07-1.37.74-2.92,1.11-4.65,1.11s-3.28-.37-4.66-1.11Zm7.32-2.83c.79-.45,1.41-1.08,1.86-1.88.45-.81.68-1.72.68-2.75s-.23-1.94-.68-2.75c-.45-.81-1.07-1.43-1.86-1.88-.79-.45-1.68-.68-2.66-.68s-1.87.22-2.66.68c-.79.45-1.41,1.08-1.86,1.88-.45.81-.68,1.72-.68,2.75s.23,1.94.68,2.75c.45.81,1.07,1.43,1.86,1.88.79.45,1.68.68,2.66.68s1.87-.22,2.66-.68Zm-1.61-17.7h3.98l-4.29,3.42h-2.89l3.2-3.42Z"/>
    <path class="cls-3" d="m410.11,135.27v16.6h-3.15l-8.28-10.08v10.08h-3.79v-16.6h3.18l8.25,10.08v-10.08h3.79Z"/>
    <path class="cls-3" d="m441.67,135.27v16.6h-3.15l-8.28-10.08v10.08h-3.79v-16.6h3.18l8.25,10.08v-10.08h3.79Z"/>
    <path class="cls-3" d="m459.34,148.31h-7.71l-1.47,3.56h-3.94l7.4-16.6h3.79l7.42,16.6h-4.03l-1.47-3.56Zm-1.21-2.92l-2.63-6.36-2.63,6.36h5.26Z"/>
    <path class="cls-3" d="m471.94,151.05c-1.37-.74-2.44-1.75-3.23-3.06-.78-1.3-1.17-2.78-1.17-4.42s.39-3.12,1.17-4.42c.78-1.3,1.86-2.32,3.23-3.06,1.37-.74,2.9-1.1,4.61-1.1,1.44,0,2.74.25,3.9.76,1.16.51,2.14,1.23,2.93,2.18l-2.47,2.28c-1.12-1.3-2.51-1.94-4.17-1.94-1.03,0-1.94.22-2.75.68-.81.45-1.43,1.08-1.88,1.88-.45.81-.68,1.72-.68,2.75s.22,1.94.68,2.75c.45.81,1.08,1.43,1.88,1.88.81.45,1.72.68,2.75.68,1.66,0,3.05-.66,4.17-1.97l2.47,2.28c-.79.96-1.77,1.7-2.94,2.2-1.17.51-2.47.76-3.91.76-1.69,0-3.22-.37-4.59-1.1Z"/>
    <path class="cls-3" d="m488.52,135.27h3.84v16.6h-3.84v-16.6Z"/>
    <path class="cls-3" d="m502.42,151.04c-1.38-.74-2.47-1.77-3.25-3.07-.78-1.3-1.17-2.77-1.17-4.4s.39-3.09,1.17-4.4c.78-1.3,1.87-2.33,3.25-3.07,1.38-.74,2.94-1.11,4.66-1.11s3.27.37,4.65,1.11,2.46,1.77,3.25,3.07c.79,1.3,1.19,2.77,1.19,4.4s-.4,3.09-1.19,4.4c-.79,1.3-1.87,2.33-3.25,3.07-1.38.74-2.92,1.11-4.65,1.11s-3.28-.37-4.66-1.11Zm7.32-2.83c.79-.45,1.41-1.08,1.86-1.88.45-.81.68-1.72.68-2.75s-.22-1.94-.68-2.75c-.45-.81-1.07-1.43-1.86-1.88-.79-.45-1.68-.68-2.66-.68s-1.87.22-2.66.68c-.79.45-1.41,1.08-1.86,1.88-.45.81-.68,1.72-.68,2.75s.22,1.94.68,2.75c.45.81,1.07,1.43,1.86,1.88.79.45,1.68.68,2.66.68s1.87-.22,2.66-.68Z"/>
    <path class="cls-3" d="m536.98,135.27v16.6h-3.15l-8.28-10.08v10.08h-3.79v-16.6h3.18l8.25,10.08v-10.08h3.79Z"/>
    <path class="cls-3" d="m554.65,148.31h-7.71l-1.47,3.56h-3.94l7.4-16.6h3.79l7.42,16.6h-4.03l-1.47-3.56Zm-1.21-2.92l-2.63-6.36-2.63,6.36h5.26Z"/>
    <path class="cls-3" d="m564.68,135.27h3.84v13.47h8.32v3.13h-12.17v-16.6Z"/>
    <path class="cls-3" d="m602.42,136c1.08.49,1.92,1.19,2.5,2.09.58.9.88,1.97.88,3.2s-.29,2.28-.88,3.19c-.58.91-1.42,1.6-2.5,2.09-1.08.48-2.36.72-3.83.72h-3.34v4.58h-3.84v-16.6h7.19c1.47,0,2.75.25,3.83.74Zm-1.41,7.41c.6-.5.9-1.2.9-2.12s-.3-1.65-.9-2.15c-.6-.5-1.48-.75-2.63-.75h-3.13v5.76h3.13c1.15,0,2.03-.25,2.63-.75Z"/>
    <path class="cls-3" d="m621.13,148.31h-7.71l-1.47,3.56h-3.94l7.4-16.6h3.79l7.42,16.6h-4.03l-1.47-3.56Zm-1.21-2.92l-2.63-6.36-2.63,6.36h5.26Z"/>
    <path class="cls-3" d="m641.74,151.87l-3.2-4.62h-3.53v4.62h-3.84v-16.6h7.18c1.47,0,2.75.25,3.83.74s1.92,1.19,2.5,2.09c.58.9.88,1.97.88,3.2s-.3,2.3-.89,3.19c-.59.89-1.43,1.58-2.53,2.05l3.72,5.34h-4.13Zm-.97-12.72c-.6-.5-1.48-.75-2.63-.75h-3.13v5.79h3.13c1.15,0,2.03-.25,2.63-.76.6-.51.9-1.22.9-2.13s-.3-1.65-.9-2.15Z"/>
    <path class="cls-3" d="m662.94,148.31h-7.71l-1.47,3.56h-3.94l7.4-16.6h3.8l7.42,16.6h-4.03l-1.47-3.56Zm-1.21-2.92l-2.63-6.36-2.63,6.36h5.26Z"/>
    <path class="cls-3" d="m682.57,135.27h3.84v13.47h8.32v3.13h-12.16v-16.6Z"/>
    <path class="cls-3" d="m711.53,148.31h-7.71l-1.47,3.56h-3.94l7.4-16.6h3.79l7.42,16.6h-4.03l-1.47-3.56Zm-1.21-2.92l-2.63-6.36-2.63,6.36h5.26Z"/>
    <path class="cls-3" d="m746.27,151.87l-.02-9.96-4.89,8.21h-1.73l-4.86-7.99v9.75h-3.6v-16.6h3.18l6.21,10.32,6.12-10.32h3.15l.05,16.6h-3.6Z"/>
    <path class="cls-3" d="m769.36,148.78v3.08h-12.85v-16.6h12.54v3.08h-8.73v3.6h7.71v2.99h-7.71v3.84h9.04Z"/>
    <path class="cls-3" d="m775.71,151.52c-.94-.42-1.71-1.02-2.31-1.79l2.13-2.56c.9,1.22,1.93,1.83,3.08,1.83,1.57,0,2.35-.92,2.35-2.75v-7.9h-5.83v-3.08h9.65v10.77c0,2.04-.51,3.57-1.52,4.59-1.01,1.02-2.5,1.53-4.46,1.53-1.12,0-2.15-.21-3.09-.63Z"/>
    <path class="cls-3" d="m794.68,151.04c-1.38-.74-2.47-1.77-3.25-3.07-.78-1.3-1.17-2.77-1.17-4.4s.39-3.09,1.17-4.4c.78-1.3,1.87-2.33,3.25-3.07,1.38-.74,2.94-1.11,4.66-1.11s3.27.37,4.65,1.11,2.46,1.77,3.25,3.07c.79,1.3,1.19,2.77,1.19,4.4s-.4,3.09-1.19,4.4c-.79,1.3-1.87,2.33-3.25,3.07-1.37.74-2.92,1.11-4.65,1.11s-3.28-.37-4.66-1.11Zm7.32-2.83c.79-.45,1.41-1.08,1.86-1.88.45-.81.68-1.72.68-2.75s-.22-1.94-.68-2.75c-.45-.81-1.07-1.43-1.86-1.88-.79-.45-1.68-.68-2.66-.68s-1.87.22-2.66.68c-.79.45-1.41,1.08-1.86,1.88-.45.81-.68,1.72-.68,2.75s.22,1.94.68,2.75c.45.81,1.07,1.43,1.86,1.88.79.45,1.68.68,2.66.68s1.87-.22,2.66-.68Z"/>
    <path class="cls-3" d="m824.6,151.87l-3.2-4.62h-3.53v4.62h-3.84v-16.6h7.18c1.47,0,2.75.25,3.83.74s1.92,1.19,2.5,2.09.88,1.97.88,3.2-.3,2.3-.89,3.19c-.59.89-1.43,1.58-2.53,2.05l3.72,5.34h-4.13Zm-.97-12.72c-.6-.5-1.48-.75-2.63-.75h-3.13v5.79h3.13c1.15,0,2.03-.25,2.63-.76.6-.51.9-1.22.9-2.13s-.3-1.65-.9-2.15Z"/>
    <path class="cls-3" d="m845.8,148.31h-7.71l-1.47,3.56h-3.94l7.4-16.6h3.79l7.42,16.6h-4.03l-1.47-3.56Zm-1.21-2.92l-2.63-6.36-2.63,6.36h5.26Z"/>
    <path class="cls-3" d="m268.65,178.42c-1.37-.74-2.44-1.75-3.23-3.06-.78-1.3-1.17-2.78-1.17-4.42s.39-3.12,1.17-4.42c.78-1.3,1.86-2.32,3.23-3.06,1.37-.74,2.9-1.1,4.61-1.1,1.44,0,2.74.25,3.9.76,1.16.51,2.14,1.23,2.93,2.18l-2.47,2.28c-1.12-1.3-2.51-1.94-4.17-1.94-1.03,0-1.94.22-2.75.68-.81.45-1.43,1.08-1.89,1.88-.45.81-.68,1.72-.68,2.75s.23,1.94.68,2.75c.45.81,1.08,1.43,1.89,1.88.81.45,1.72.68,2.75.68,1.66,0,3.05-.66,4.17-1.97l2.47,2.28c-.79.96-1.77,1.7-2.94,2.21-1.17.51-2.47.76-3.91.76-1.69,0-3.22-.37-4.59-1.1Z"/>
    <path class="cls-3" d="m288.32,178.41c-1.38-.74-2.47-1.77-3.25-3.07-.78-1.3-1.17-2.77-1.17-4.4s.39-3.09,1.17-4.4c.78-1.3,1.87-2.33,3.25-3.07,1.38-.74,2.94-1.11,4.66-1.11s3.27.37,4.65,1.11c1.38.74,2.46,1.77,3.25,3.07.79,1.3,1.19,2.77,1.19,4.4s-.4,3.09-1.19,4.4c-.79,1.3-1.87,2.33-3.25,3.07-1.37.74-2.92,1.11-4.65,1.11s-3.28-.37-4.66-1.11Zm7.32-2.83c.79-.45,1.41-1.08,1.86-1.88.45-.81.68-1.72.68-2.75s-.23-1.94-.68-2.75c-.45-.81-1.07-1.43-1.86-1.88-.79-.45-1.68-.68-2.66-.68s-1.87.22-2.66.68c-.79.45-1.41,1.08-1.86,1.88-.45.81-.68,1.72-.68,2.75s.23,1.94.68,2.75c.45.81,1.07,1.43,1.86,1.88.79.45,1.68.68,2.66.68s1.87-.22,2.66-.68Z"/>
    <path class="cls-3" d="m322.89,162.64v16.6h-3.15l-8.28-10.08v10.08h-3.79v-16.6h3.18l8.25,10.08v-10.08h3.79Z"/>
    <path class="cls-3" d="m332.9,165.77h-5.31v-3.13h14.47v3.13h-5.31v13.47h-3.84v-13.47Z"/>
    <path class="cls-3" d="m346.75,162.64h3.84v16.6h-3.84v-16.6Z"/>
    <path class="cls-3" d="m372.44,162.64v16.6h-3.15l-8.28-10.08v10.08h-3.79v-16.6h3.18l8.25,10.08v-10.08h3.79Z"/>
    <path class="cls-3" d="m380.93,177.55c-1.32-1.31-1.98-3.19-1.98-5.62v-9.3h3.84v9.15c0,2.97,1.23,4.46,3.7,4.46,1.2,0,2.12-.36,2.75-1.08.63-.72.95-1.85.95-3.38v-9.15h3.79v9.3c0,2.43-.66,4.31-1.98,5.62-1.32,1.31-3.17,1.97-5.54,1.97s-4.22-.66-5.54-1.97Z"/>
    <path class="cls-3" d="m410.67,175.68h-7.71l-1.47,3.56h-3.94l7.4-16.6h3.79l7.42,16.6h-4.03l-1.47-3.56Zm-1.21-2.92l-2.63-6.36-2.63,6.36h5.26Z"/>
    <path class="cls-3" d="m430.31,162.64h7.54c1.8,0,3.39.34,4.78,1.03,1.38.69,2.46,1.66,3.23,2.91.77,1.25,1.15,2.7,1.15,4.36s-.38,3.11-1.15,4.36c-.77,1.25-1.84,2.22-3.23,2.91-1.38.69-2.98,1.03-4.78,1.03h-7.54v-16.6Zm7.35,13.45c1.66,0,2.98-.46,3.97-1.39.99-.92,1.48-2.18,1.48-3.76s-.49-2.83-1.48-3.76c-.99-.92-2.31-1.39-3.97-1.39h-3.51v10.29h3.51Z"/>
    <path class="cls-3" d="m465.46,176.15v3.08h-12.85v-16.6h12.54v3.08h-8.73v3.6h7.71v2.99h-7.71v3.84h9.04Z"/>
    <path class="cls-3" d="m480.92,162.64h3.84v13.47h8.32v3.13h-12.17v-16.6Z"/>
    <path class="cls-3" d="m509.87,175.68h-7.71l-1.47,3.56h-3.94l7.4-16.6h3.79l7.42,16.6h-4.03l-1.47-3.56Zm-1.21-2.92l-2.63-6.36-2.63,6.36h5.26Z"/>
    <path class="cls-3" d="m542.36,176.15v3.08h-12.85v-16.6h12.54v3.08h-8.73v3.6h7.71v2.99h-7.71v3.84h9.04Z"/>
    <path class="cls-3" d="m548.26,162.64h7.54c1.8,0,3.39.34,4.78,1.03,1.38.69,2.46,1.66,3.23,2.91.77,1.25,1.15,2.7,1.15,4.36s-.38,3.11-1.15,4.36c-.77,1.25-1.84,2.22-3.23,2.91-1.38.69-2.98,1.03-4.78,1.03h-7.54v-16.6Zm7.35,13.45c1.66,0,2.98-.46,3.97-1.39.99-.92,1.48-2.18,1.48-3.76s-.49-2.83-1.48-3.76c-.99-.92-2.31-1.39-3.97-1.39h-3.51v10.29h3.51Z"/>
    <path class="cls-3" d="m572.3,177.55c-1.32-1.31-1.98-3.19-1.98-5.62v-9.3h3.84v9.15c0,2.97,1.23,4.46,3.7,4.46,1.2,0,2.12-.36,2.75-1.08.63-.72.95-1.85.95-3.38v-9.15h3.79v9.3c0,2.43-.66,4.31-1.98,5.62s-3.17,1.97-5.54,1.97-4.22-.66-5.54-1.97Z"/>
    <path class="cls-3" d="m595.17,178.42c-1.37-.74-2.44-1.75-3.23-3.06-.78-1.3-1.17-2.78-1.17-4.42s.39-3.12,1.17-4.42c.78-1.3,1.86-2.32,3.23-3.06,1.37-.74,2.9-1.1,4.61-1.1,1.44,0,2.74.25,3.9.76,1.16.51,2.14,1.23,2.93,2.18l-2.47,2.28c-1.12-1.3-2.51-1.94-4.17-1.94-1.03,0-1.94.22-2.75.68-.81.45-1.43,1.08-1.88,1.88-.45.81-.68,1.72-.68,2.75s.22,1.94.68,2.75c.45.81,1.08,1.43,1.88,1.88.81.45,1.72.68,2.75.68,1.66,0,3.05-.66,4.17-1.97l2.47,2.28c-.79.96-1.77,1.7-2.94,2.21-1.17.51-2.47.76-3.91.76-1.69,0-3.22-.37-4.59-1.1Z"/>
    <path class="cls-3" d="m623.1,175.68h-7.71l-1.47,3.56h-3.94l7.4-16.6h3.79l7.42,16.6h-4.03l-1.47-3.56Zm-1.21-2.92l-2.63-6.36-2.63,6.36h5.26Z"/>
    <path class="cls-3" d="m635.7,178.42c-1.37-.74-2.44-1.75-3.22-3.06-.78-1.3-1.17-2.78-1.17-4.42s.39-3.12,1.17-4.42c.78-1.3,1.86-2.32,3.22-3.06,1.37-.74,2.91-1.1,4.61-1.1,1.44,0,2.74.25,3.9.76s2.14,1.23,2.93,2.18l-2.47,2.28c-1.12-1.3-2.51-1.94-4.17-1.94-1.03,0-1.94.22-2.75.68-.81.45-1.43,1.08-1.89,1.88-.45.81-.68,1.72-.68,2.75s.23,1.94.68,2.75c.45.81,1.08,1.43,1.89,1.88.81.45,1.72.68,2.75.68,1.66,0,3.05-.66,4.17-1.97l2.47,2.28c-.79.96-1.77,1.7-2.94,2.21-1.17.51-2.47.76-3.91.76-1.69,0-3.22-.37-4.59-1.1Z"/>
    <path class="cls-3" d="m652.29,162.64h3.84v16.6h-3.84v-16.6Z"/>
    <path class="cls-3" d="m666.18,178.41c-1.38-.74-2.47-1.77-3.25-3.07-.78-1.3-1.17-2.77-1.17-4.4s.39-3.09,1.17-4.4c.78-1.3,1.87-2.33,3.25-3.07,1.38-.74,2.94-1.11,4.66-1.11s3.27.37,4.65,1.11c1.37.74,2.46,1.77,3.25,3.07.79,1.3,1.19,2.77,1.19,4.4s-.4,3.09-1.19,4.4c-.79,1.3-1.87,2.33-3.25,3.07-1.37.74-2.92,1.11-4.65,1.11s-3.28-.37-4.66-1.11Zm7.32-2.83c.79-.45,1.41-1.08,1.86-1.88.45-.81.68-1.72.68-2.75s-.22-1.94-.68-2.75c-.45-.81-1.07-1.43-1.86-1.88-.79-.45-1.68-.68-2.66-.68s-1.87.22-2.66.68c-.79.45-1.41,1.08-1.86,1.88-.45.81-.68,1.72-.68,2.75s.22,1.94.68,2.75c.45.81,1.07,1.43,1.86,1.88.79.45,1.68.68,2.66.68s1.87-.22,2.66-.68Zm-1.61-17.7h3.98l-4.29,3.41h-2.89l3.2-3.41Z"/>
    <path class="cls-3" d="m700.75,162.64v16.6h-3.15l-8.28-10.08v10.08h-3.79v-16.6h3.18l8.25,10.08v-10.08h3.79Z"/>
  </g>
</svg>